# Blender 3.6.0
# www.blender.org
mtllib skybox.mtl
o Cube
v 5628.415039 5628.415039 -5628.415039
v 5628.415039 -5628.415039 -5628.415039
v 5628.415039 5628.415039 5628.415039
v 5628.415039 -5628.415039 5628.415039
v -5628.415039 5628.415039 -5628.415039
v -5628.415039 -5628.415039 -5628.415039
v -5628.415039 5628.415039 5628.415039
v -5628.415039 -5628.415039 5628.415039
vn -0.0000 -1.0000 -0.0000
vn -0.0000 -0.0000 -1.0000
vn 1.0000 -0.0000 -0.0000
vn -0.0000 1.0000 -0.0000
vn -1.0000 -0.0000 -0.0000
vn -0.0000 -0.0000 1.0000
vt 0.501198 0.671785
vt 0.249803 0.669519
vt 0.249408 0.999988
vt 0.500803 0.998512
vt 0.250198 0.339049
vt 0.000198 0.334911
vt -0.000197 0.665381
vt 1.000197 0.338362
vt 0.751593 0.336096
vt 0.749802 0.666566
vt 0.999802 0.666961
vt 0.501988 0.001488
vt 0.251988 -0.000778
vt 0.500197 0.335701
s 0
usemtl Material
f 1/1/1 3/2/1 7/3/1 5/4/1
f 4/5/2 8/6/2 7/7/2 3/2/2
f 8/8/3 6/9/3 5/10/3 7/11/3
f 6/12/4 8/13/4 4/5/4 2/14/4
f 2/14/5 4/5/5 3/2/5 1/1/5
f 6/9/6 2/14/6 1/1/6 5/10/6
